<svg width="27" height="26" viewBox="0 0 27 26" fill="none" xmlns="http://www.w3.org/2000/svg">
<path fill-rule="evenodd" clip-rule="evenodd" d="M0.246094 13C0.246094 5.8203 6.06639 0 13.2461 0C20.4258 0 26.2461 5.8203 26.2461 13C26.2461 20.1797 20.4258 26 13.2461 26C6.06639 26 0.246094 20.1797 0.246094 13ZM13.2461 6.5C16.8211 6.5 19.7461 9.425 19.7461 13C19.7461 16.25 17.3898 19.0125 14.1398 19.5V14.8687H15.6836L16.0086 13H14.2211V11.7812C14.2211 11.2937 14.4648 10.8063 15.2773 10.8063H16.0898V9.18125C16.0898 9.18125 15.3586 9.01875 14.6273 9.01875C13.1648 9.01875 12.1898 9.9125 12.1898 11.5375V13H10.5648V14.8687H12.1898V19.4187C9.10234 18.9312 6.74609 16.25 6.74609 13C6.74609 9.425 9.67109 6.5 13.2461 6.5Z" fill="#FFCB74"/>
</svg>
