<svg width="27" height="26" viewBox="0 0 27 26" fill="none" xmlns="http://www.w3.org/2000/svg">
<path d="M13.1211 15.275C11.9023 15.275 10.8461 14.3 10.8461 13C10.8461 11.7812 11.8211 10.725 13.1211 10.725C14.3398 10.725 15.3961 11.7 15.3961 13C15.3961 14.2187 14.3398 15.275 13.1211 15.275Z" fill="#FFCB74"/>
<path fill-rule="evenodd" clip-rule="evenodd" d="M15.8836 7.475H10.3586C9.70859 7.55625 9.38359 7.6375 9.13984 7.71875C8.81484 7.8 8.57109 7.9625 8.32734 8.20625C8.13447 8.39913 8.04334 8.592 7.93319 8.82513C7.90416 8.88657 7.87373 8.95098 7.83984 9.01875C7.82727 9.05646 7.81276 9.09611 7.7972 9.13861C7.7122 9.37083 7.59609 9.68805 7.59609 10.2375V15.7625C7.67734 16.4125 7.75859 16.7375 7.83984 16.9812C7.92109 17.3062 8.08359 17.55 8.32734 17.7937C8.52022 17.9866 8.7131 18.0778 8.94623 18.1879C9.00772 18.217 9.07201 18.2473 9.13984 18.2812C9.17755 18.2938 9.2172 18.3083 9.2597 18.3239C9.49193 18.4089 9.80915 18.525 10.3586 18.525H15.8836C16.5336 18.4437 16.8586 18.3625 17.1023 18.2812C17.4273 18.2 17.6711 18.0375 17.9148 17.7937C18.1077 17.6009 18.1988 17.408 18.309 17.1749C18.338 17.1134 18.3684 17.0491 18.4023 16.9812C18.4149 16.9435 18.4294 16.9039 18.445 16.8614C18.53 16.6292 18.6461 16.3119 18.6461 15.7625V10.2375C18.5648 9.5875 18.4836 9.2625 18.4023 9.01875C18.3211 8.69375 18.1586 8.45 17.9148 8.20625C17.722 8.01337 17.5291 7.92224 17.296 7.81209C17.2346 7.78308 17.1701 7.75261 17.1023 7.71875C17.0646 7.70618 17.025 7.69166 16.9825 7.67611C16.7503 7.59111 16.433 7.475 15.8836 7.475ZM13.1211 9.50625C11.1711 9.50625 9.62734 11.05 9.62734 13C9.62734 14.95 11.1711 16.4937 13.1211 16.4937C15.0711 16.4937 16.6148 14.95 16.6148 13C16.6148 11.05 15.0711 9.50625 13.1211 9.50625ZM17.5086 9.425C17.5086 9.87373 17.1448 10.2375 16.6961 10.2375C16.2474 10.2375 15.8836 9.87373 15.8836 9.425C15.8836 8.97627 16.2474 8.6125 16.6961 8.6125C17.1448 8.6125 17.5086 8.97627 17.5086 9.425Z" fill="#FFCB74"/>
<path fill-rule="evenodd" clip-rule="evenodd" d="M0.121094 13C0.121094 5.8203 5.94139 0 13.1211 0C20.3008 0 26.1211 5.8203 26.1211 13C26.1211 20.1797 20.3008 26 13.1211 26C5.94139 26 0.121094 20.1797 0.121094 13ZM10.3586 6.25625H15.8836C16.6148 6.3375 17.1023 6.41875 17.5086 6.58125C17.9961 6.825 18.3211 6.9875 18.7273 7.39375C19.1336 7.8 19.3773 8.20625 19.5398 8.6125C19.7023 9.01875 19.8648 9.50625 19.8648 10.2375V15.7625C19.7836 16.4937 19.7023 16.9812 19.5398 17.3875C19.2961 17.875 19.1336 18.2 18.7273 18.6062C18.3211 19.0125 17.9148 19.2562 17.5086 19.4187C17.1023 19.5812 16.6148 19.7437 15.8836 19.7437H10.3586C9.62734 19.6625 9.13984 19.5812 8.73359 19.4187C8.24609 19.175 7.92109 19.0125 7.51484 18.6062C7.10859 18.2 6.86484 17.7937 6.70234 17.3875C6.53984 16.9812 6.37734 16.4937 6.37734 15.7625V10.2375C6.45859 9.50625 6.53984 9.01875 6.70234 8.6125C6.94609 8.125 7.10859 7.8 7.51484 7.39375C7.92109 6.9875 8.32734 6.74375 8.73359 6.58125C9.13984 6.41875 9.62734 6.25625 10.3586 6.25625Z" fill="#FFCB74"/>
</svg>
