<svg width="213" height="181" viewBox="0 0 213 181" fill="none" xmlns="http://www.w3.org/2000/svg">
<g clip-path="url(#clip0_340_13254)">
<path d="M157.068 78.5195C153.339 83.5965 148.344 85.8176 142.942 87.0244C134.181 88.9763 125.457 88.0148 116.754 86.3561C103.843 83.8945 90.9491 81.2695 78.0014 79.0916C71.0702 77.9281 64.0194 77.6781 57.15 79.8512C54.2118 80.7791 51.4261 82.3465 48.2695 83.7551C49.4234 82.457 50.3753 81.0868 51.5621 80.0964C56.878 75.6685 63.0675 74.38 69.3765 73.5579C81.2857 72.0002 92.8612 74.7406 104.486 77.1108C114.805 79.2166 125.148 81.2263 135.537 82.7407C142.95 83.8224 150.289 82.8897 157.068 78.5195Z" fill="#FFCB74"/>
<path d="M70.7656 71.0628C81.69 65.0195 92.6102 58.9809 103.535 52.9376C106.996 51.0241 110.445 49.0722 113.936 47.226C114.459 46.9472 115.345 46.8414 115.765 47.1731C124.283 53.8463 132.756 60.5915 141.137 67.6445C137.235 66.5291 133.328 65.4233 129.43 64.2935C125.383 63.1204 121.382 61.6204 117.278 60.856C115.172 60.4617 112.835 61.1204 110.688 61.7213C101.041 64.4185 91.4564 67.4041 81.7889 69.981C78.2161 70.933 74.4826 71.0532 70.8192 71.5532C70.8027 71.3897 70.7821 71.2311 70.7656 71.0676V71.0628Z" fill="#FFCB74"/>
<path d="M114.485 30.1493C121.305 38.3273 127.997 46.3514 134.685 54.3756L134.578 54.6448C134.17 54.3996 133.758 54.1688 133.358 53.9044C127.527 50.0342 121.676 46.2024 115.886 42.2456C114.798 41.5004 114.011 41.5581 112.911 42.135C97.5769 50.2313 82.2185 58.2698 66.8642 66.3132C66.4604 66.5247 66.0194 66.6497 65.4961 66.5391C81.7734 54.4477 98.0466 42.3562 114.485 30.1445V30.1493Z" fill="#FFCB74"/>
<path d="M113.98 23.2059C98.8272 34.6916 83.9056 45.9995 68.9881 57.3073C68.8892 57.163 68.7903 57.014 68.6914 56.8698C83.613 42.2206 98.5305 27.5714 113.687 12.6914C119.539 22.2444 125.332 31.7012 131.126 41.1629C131.06 41.2494 130.99 41.3407 130.924 41.4273C125.295 35.3743 119.666 29.3166 113.984 23.2059H113.98Z" fill="#FFCB74"/>
<path d="M150.685 65.3661C151.827 66.6017 152.663 67.419 153.405 68.3325C157.308 73.1451 156.133 78.5538 150.545 79.7173C145.588 80.7461 140.458 81.2028 135.422 81.0394C125.515 80.7221 115.856 78.2845 106.329 75.1547C105.818 74.9864 105.319 74.7509 104.367 74.3614C110.586 75.3518 116.301 76.4191 122.05 77.1403C129.294 78.049 136.563 78.5778 143.746 76.4191C144.797 76.1018 145.827 75.6211 146.804 75.0634C150.364 73.0249 151.464 70.4575 150.685 65.3613V65.3661Z" fill="#FFCB74"/>
<path d="M126.042 21.9858C121.97 16.9665 117.899 11.9424 113.675 6.73565C103.995 15.7213 94.34 24.6878 84.6808 33.6542C84.5489 33.4907 84.417 33.3273 84.2852 33.159C94.1463 22.1397 104.008 11.1203 113.959 0C117.779 6.73084 122.04 14.2405 126.301 21.7502C126.215 21.8272 126.128 21.9089 126.046 21.9858H126.042Z" fill="#FFCB74"/>
</g>
<path d="M17.2038 122.141V97.5556H25.6518C27.2578 97.5556 28.6658 97.8746 29.8758 98.5126C31.0858 99.1286 32.0208 100.009 32.6808 101.153C33.3628 102.275 33.7038 103.584 33.7038 105.08C33.7038 106.576 33.3628 107.885 32.6808 109.007C32.0208 110.129 31.0858 111.009 29.8758 111.647C28.6878 112.263 27.2798 112.571 25.6518 112.571H19.8438V122.141H17.2038ZM19.8438 110.096H25.7838C26.8398 110.096 27.7638 109.898 28.5558 109.502C29.3478 109.084 29.9638 108.501 30.4038 107.753C30.8438 106.983 31.0638 106.081 31.0638 105.047C31.0638 104.013 30.8438 103.122 30.4038 102.374C29.9638 101.626 29.3478 101.054 28.5558 100.658C27.7638 100.24 26.8398 100.031 25.7838 100.031H19.8438V110.096ZM41.8396 122.537C40.7176 122.537 39.7166 122.328 38.8366 121.91C37.9566 121.47 37.2636 120.876 36.7576 120.128C36.2516 119.38 35.9986 118.522 35.9986 117.554C35.9986 116.63 36.1966 115.794 36.5926 115.046C36.9886 114.276 37.6046 113.627 38.4406 113.099C39.2766 112.571 40.3436 112.197 41.6416 111.977L48.5716 110.822V113.066L42.2356 114.122C40.9596 114.342 40.0356 114.749 39.4636 115.343C38.9136 115.937 38.6386 116.641 38.6386 117.455C38.6386 118.247 38.9466 118.918 39.5626 119.468C40.2006 120.018 41.0146 120.293 42.0046 120.293C43.2146 120.293 44.2706 120.04 45.1726 119.534C46.0746 119.006 46.7786 118.302 47.2846 117.422C47.7906 116.542 48.0436 115.563 48.0436 114.485V109.997C48.0436 108.941 47.6586 108.083 46.8886 107.423C46.1186 106.763 45.1176 106.433 43.8856 106.433C42.8076 106.433 41.8616 106.708 41.0476 107.258C40.2336 107.786 39.6286 108.479 39.2326 109.337L36.9886 108.116C37.3186 107.368 37.8356 106.686 38.5396 106.07C39.2656 105.454 40.0906 104.97 41.0146 104.618C41.9386 104.244 42.8956 104.057 43.8856 104.057C45.1836 104.057 46.3276 104.31 47.3176 104.816C48.3296 105.322 49.1106 106.026 49.6606 106.928C50.2326 107.808 50.5186 108.831 50.5186 109.997V122.141H48.0436V118.61L48.4066 118.973C48.0986 119.633 47.6146 120.238 46.9546 120.788C46.3166 121.316 45.5576 121.745 44.6776 122.075C43.8196 122.383 42.8736 122.537 41.8396 122.537ZM63.6944 122.537C61.9564 122.537 60.4274 122.13 59.1074 121.316C57.7874 120.502 56.7534 119.402 56.0054 118.016C55.2574 116.608 54.8834 115.024 54.8834 113.264C54.8834 111.504 55.2574 109.931 56.0054 108.545C56.7534 107.159 57.7874 106.07 59.1074 105.278C60.4274 104.464 61.9564 104.057 63.6944 104.057C64.7944 104.057 65.8284 104.255 66.7964 104.651C67.7644 105.047 68.6224 105.586 69.3704 106.268C70.1184 106.928 70.6794 107.698 71.0534 108.578L68.8094 109.733C68.3694 108.787 67.6984 108.017 66.7964 107.423C65.8944 106.829 64.8604 106.532 63.6944 106.532C62.5284 106.532 61.4724 106.829 60.5264 107.423C59.6024 107.995 58.8654 108.798 58.3154 109.832C57.7874 110.844 57.5234 111.999 57.5234 113.297C57.5234 114.573 57.7874 115.728 58.3154 116.762C58.8654 117.774 59.6024 118.577 60.5264 119.171C61.4724 119.765 62.5284 120.062 63.6944 120.062C64.8604 120.062 65.8834 119.765 66.7634 119.171C67.6654 118.577 68.3474 117.785 68.8094 116.795L71.0534 118.016C70.6794 118.874 70.1184 119.644 69.3704 120.326C68.6224 121.008 67.7644 121.547 66.7964 121.943C65.8284 122.339 64.7944 122.537 63.6944 122.537ZM75.3965 122.141V104.453H77.8715V122.141H75.3965ZM75.3965 101.186V97.5556H77.8715V101.186H75.3965ZM84.7525 122.141V106.928H81.2215V104.453H84.7525V102.869C84.7525 101.637 85.0275 100.603 85.5775 99.7666C86.1275 98.9086 86.8535 98.2596 87.7555 97.8196C88.6575 97.3796 89.6255 97.1596 90.6595 97.1596C90.8795 97.1596 91.1325 97.1816 91.4185 97.2256C91.7045 97.2476 91.9355 97.2806 92.1115 97.3246V99.5686C91.9575 99.5246 91.7485 99.5026 91.4845 99.5026C91.2205 99.4806 91.0335 99.4696 90.9235 99.4696C89.8675 99.4696 88.9875 99.7226 88.2835 100.229C87.5795 100.735 87.2275 101.615 87.2275 102.869V104.453H97.1605V106.928H87.2275V122.141H84.7525ZM95.0815 122.141V104.453H97.5565V122.141H95.0815ZM110.23 122.537C108.492 122.537 106.963 122.13 105.643 121.316C104.323 120.502 103.289 119.402 102.541 118.016C101.793 116.608 101.419 115.024 101.419 113.264C101.419 111.504 101.793 109.931 102.541 108.545C103.289 107.159 104.323 106.07 105.643 105.278C106.963 104.464 108.492 104.057 110.23 104.057C111.33 104.057 112.364 104.255 113.332 104.651C114.3 105.047 115.158 105.586 115.906 106.268C116.654 106.928 117.215 107.698 117.589 108.578L115.345 109.733C114.905 108.787 114.234 108.017 113.332 107.423C112.43 106.829 111.396 106.532 110.23 106.532C109.064 106.532 108.008 106.829 107.062 107.423C106.138 107.995 105.401 108.798 104.851 109.832C104.323 110.844 104.059 111.999 104.059 113.297C104.059 114.573 104.323 115.728 104.851 116.762C105.401 117.774 106.138 118.577 107.062 119.171C108.008 119.765 109.064 120.062 110.23 120.062C111.396 120.062 112.419 119.765 113.299 119.171C114.201 118.577 114.883 117.785 115.345 116.795L117.589 118.016C117.215 118.874 116.654 119.644 115.906 120.326C115.158 121.008 114.3 121.547 113.332 121.943C112.364 122.339 111.33 122.537 110.23 122.537ZM127.902 122.141V97.5556H136.35C137.956 97.5556 139.364 97.8746 140.574 98.5126C141.784 99.1286 142.719 100.009 143.379 101.153C144.061 102.275 144.402 103.584 144.402 105.08C144.402 106.818 143.94 108.303 143.016 109.535C142.114 110.767 140.882 111.636 139.32 112.142L145.062 122.141H141.96L135.954 111.548L137.736 112.571H130.542V122.141H127.902ZM130.542 110.096H136.482C137.538 110.096 138.462 109.898 139.254 109.502C140.046 109.084 140.662 108.501 141.102 107.753C141.542 106.983 141.762 106.081 141.762 105.047C141.762 104.013 141.542 103.122 141.102 102.374C140.662 101.626 140.046 101.054 139.254 100.658C138.462 100.24 137.538 100.031 136.482 100.031H130.542V110.096ZM155.733 122.537C154.083 122.537 152.587 122.141 151.245 121.349C149.925 120.535 148.88 119.424 148.11 118.016C147.34 116.608 146.955 115.013 146.955 113.231C146.955 111.449 147.329 109.876 148.077 108.512C148.825 107.126 149.837 106.037 151.113 105.245C152.411 104.453 153.863 104.057 155.469 104.057C156.745 104.057 157.878 104.299 158.868 104.783C159.88 105.245 160.738 105.883 161.442 106.697C162.146 107.489 162.685 108.391 163.059 109.403C163.433 110.393 163.62 111.416 163.62 112.472C163.62 112.692 163.609 112.945 163.587 113.231C163.565 113.495 163.532 113.77 163.488 114.056H148.539V111.746H162.069L160.881 112.736C161.079 111.526 160.936 110.448 160.452 109.502C159.99 108.534 159.319 107.775 158.439 107.225C157.559 106.653 156.569 106.367 155.469 106.367C154.369 106.367 153.346 106.653 152.4 107.225C151.476 107.797 150.75 108.6 150.222 109.634C149.694 110.646 149.485 111.856 149.595 113.264C149.485 114.672 149.705 115.904 150.255 116.96C150.827 117.994 151.597 118.797 152.565 119.369C153.555 119.941 154.611 120.227 155.733 120.227C157.031 120.227 158.12 119.919 159 119.303C159.88 118.687 160.595 117.917 161.145 116.993L163.257 118.115C162.905 118.907 162.366 119.644 161.64 120.326C160.914 120.986 160.045 121.525 159.033 121.943C158.043 122.339 156.943 122.537 155.733 122.537ZM176.035 122.537C174.385 122.537 172.889 122.141 171.547 121.349C170.227 120.535 169.182 119.424 168.412 118.016C167.642 116.608 167.257 115.013 167.257 113.231C167.257 111.449 167.631 109.876 168.379 108.512C169.127 107.126 170.139 106.037 171.415 105.245C172.713 104.453 174.165 104.057 175.771 104.057C177.047 104.057 178.18 104.299 179.17 104.783C180.182 105.245 181.04 105.883 181.744 106.697C182.448 107.489 182.987 108.391 183.361 109.403C183.735 110.393 183.922 111.416 183.922 112.472C183.922 112.692 183.911 112.945 183.889 113.231C183.867 113.495 183.834 113.77 183.79 114.056H168.841V111.746H182.371L181.183 112.736C181.381 111.526 181.238 110.448 180.754 109.502C180.292 108.534 179.621 107.775 178.741 107.225C177.861 106.653 176.871 106.367 175.771 106.367C174.671 106.367 173.648 106.653 172.702 107.225C171.778 107.797 171.052 108.6 170.524 109.634C169.996 110.646 169.787 111.856 169.897 113.264C169.787 114.672 170.007 115.904 170.557 116.96C171.129 117.994 171.899 118.797 172.867 119.369C173.857 119.941 174.913 120.227 176.035 120.227C177.333 120.227 178.422 119.919 179.302 119.303C180.182 118.687 180.897 117.917 181.447 116.993L183.559 118.115C183.207 118.907 182.668 119.644 181.942 120.326C181.216 120.986 180.347 121.525 179.335 121.943C178.345 122.339 177.245 122.537 176.035 122.537ZM190.101 122.141V106.928H186.57V104.453H190.101V102.869C190.101 101.637 190.376 100.603 190.926 99.7666C191.476 98.9086 192.202 98.2596 193.104 97.8196C194.006 97.3796 194.974 97.1596 196.008 97.1596C196.228 97.1596 196.481 97.1816 196.767 97.2256C197.053 97.2476 197.284 97.2806 197.46 97.3246V99.5686C197.306 99.5246 197.097 99.5026 196.833 99.5026C196.569 99.4806 196.382 99.4696 196.272 99.4696C195.216 99.4696 194.336 99.7226 193.632 100.229C192.928 100.735 192.576 101.615 192.576 102.869V104.453H196.899V106.928H192.576V122.141H190.101ZM66.6071 153.141V128.556H69.2471V139.611H82.4471V128.556H85.0871V153.141H82.4471V142.086H69.2471V153.141H66.6071ZM98.826 153.537C97.154 153.537 95.636 153.141 94.272 152.349C92.908 151.535 91.819 150.435 91.005 149.049C90.213 147.641 89.817 146.046 89.817 144.264C89.817 142.504 90.213 140.931 91.005 139.545C91.797 138.159 92.864 137.07 94.206 136.278C95.57 135.464 97.11 135.057 98.826 135.057C100.542 135.057 102.071 135.453 103.413 136.245C104.777 137.037 105.844 138.126 106.614 139.512C107.406 140.898 107.802 142.482 107.802 144.264C107.802 146.068 107.395 147.674 106.581 149.082C105.767 150.468 104.678 151.557 103.314 152.349C101.972 153.141 100.476 153.537 98.826 153.537ZM98.826 151.062C100.014 151.062 101.081 150.765 102.027 150.171C102.995 149.577 103.754 148.763 104.304 147.729C104.876 146.695 105.162 145.54 105.162 144.264C105.162 142.988 104.876 141.844 104.304 140.832C103.754 139.82 102.995 139.017 102.027 138.423C101.081 137.829 100.014 137.532 98.826 137.532C97.638 137.532 96.56 137.829 95.592 138.423C94.646 139.017 93.887 139.82 93.315 140.832C92.743 141.844 92.457 142.988 92.457 144.264C92.457 145.54 92.743 146.695 93.315 147.729C93.887 148.763 94.646 149.577 95.592 150.171C96.56 150.765 97.638 151.062 98.826 151.062ZM118.61 153.339C117.026 153.339 115.805 152.877 114.947 151.953C114.089 151.029 113.66 149.709 113.66 147.993V137.928H110.393V135.453H111.218C111.966 135.453 112.56 135.211 113 134.727C113.44 134.221 113.66 133.594 113.66 132.846V131.361H116.135V135.453H120.029V137.928H116.135V147.993C116.135 148.587 116.223 149.115 116.399 149.577C116.575 150.017 116.872 150.369 117.29 150.633C117.73 150.897 118.313 151.029 119.039 151.029C119.215 151.029 119.424 151.018 119.666 150.996C119.908 150.974 120.117 150.952 120.293 150.93V153.141C120.029 153.207 119.732 153.251 119.402 153.273C119.072 153.317 118.808 153.339 118.61 153.339ZM132.046 153.537C130.396 153.537 128.9 153.141 127.558 152.349C126.238 151.535 125.193 150.424 124.423 149.016C123.653 147.608 123.268 146.013 123.268 144.231C123.268 142.449 123.642 140.876 124.39 139.512C125.138 138.126 126.15 137.037 127.426 136.245C128.724 135.453 130.176 135.057 131.782 135.057C133.058 135.057 134.191 135.299 135.181 135.783C136.193 136.245 137.051 136.883 137.755 137.697C138.459 138.489 138.998 139.391 139.372 140.403C139.746 141.393 139.933 142.416 139.933 143.472C139.933 143.692 139.922 143.945 139.9 144.231C139.878 144.495 139.845 144.77 139.801 145.056H124.852V142.746H138.382L137.194 143.736C137.392 142.526 137.249 141.448 136.765 140.502C136.303 139.534 135.632 138.775 134.752 138.225C133.872 137.653 132.882 137.367 131.782 137.367C130.682 137.367 129.659 137.653 128.713 138.225C127.789 138.797 127.063 139.6 126.535 140.634C126.007 141.646 125.798 142.856 125.908 144.264C125.798 145.672 126.018 146.904 126.568 147.96C127.14 148.994 127.91 149.797 128.878 150.369C129.868 150.941 130.924 151.227 132.046 151.227C133.344 151.227 134.433 150.919 135.313 150.303C136.193 149.687 136.908 148.917 137.458 147.993L139.57 149.115C139.218 149.907 138.679 150.644 137.953 151.326C137.227 151.986 136.358 152.525 135.346 152.943C134.356 153.339 133.256 153.537 132.046 153.537ZM144.297 153.141V128.16H146.772V153.141H144.297Z" fill="#FFCB74"/>
<path d="M58.4912 159.508L60.7861 166.851L68.2126 166.851L62.2045 171.389L64.4994 178.733L58.4912 174.194L52.4831 178.733L54.778 171.389L48.7698 166.851L56.1963 166.851L58.4912 159.508Z" fill="#FFCB74"/>
<path d="M84.0576 159.508L86.3525 166.851L93.779 166.851L87.7709 171.389L90.0658 178.733L84.0576 174.194L78.0495 178.733L80.3444 171.389L74.3362 166.851L81.7627 166.851L84.0576 159.508Z" fill="#FFCB74"/>
<path d="M109.288 159.508L111.583 166.851L119.01 166.851L113.001 171.389L115.296 178.733L109.288 174.194L103.28 178.733L105.575 171.389L99.5667 166.851L106.993 166.851L109.288 159.508Z" fill="#FFCB74"/>
<path d="M134.038 159.508L136.333 166.851L143.76 166.851L137.751 171.389L140.046 178.733L134.038 174.194L128.03 178.733L130.325 171.389L124.317 166.851L131.743 166.851L134.038 159.508Z" fill="#FFCB74"/>
<path d="M157.28 159.508L159.575 166.844L167.002 166.844L160.994 171.378L163.288 178.715L157.28 174.181L151.272 178.715L153.567 171.378L147.559 166.844L154.985 166.844L157.28 159.508Z" fill="#FFCB74"/>
<defs>
<clipPath id="clip0_340_13254">
<rect width="108.799" height="88.1115" fill="white" transform="translate(48.2695)"/>
</clipPath>
</defs>
</svg>
